<svg width="355" height="172" viewBox="0 0 355 172" fill="none" xmlns="http://www.w3.org/2000/svg">
<g filter="url(#filter0_d_1_85)">
<rect x="4" y="2" width="347" height="164" rx="10" fill="url(#paint0_linear_1_85)"/>
</g>
<path d="M31.1016 34.0703C31.1016 33.5703 30.9245 33.1849 30.5703 32.9141C30.2214 32.6432 29.5885 32.3698 28.6719 32.0938C27.7552 31.8177 27.026 31.5104 26.4844 31.1719C25.4479 30.5208 24.9297 29.6719 24.9297 28.625C24.9297 27.7083 25.3021 26.9531 26.0469 26.3594C26.7969 25.7656 27.7682 25.4688 28.9609 25.4688C29.7526 25.4688 30.4583 25.6146 31.0781 25.9062C31.6979 26.1979 32.1849 26.6146 32.5391 27.1562C32.8932 27.6927 33.0703 28.2891 33.0703 28.9453H31.1016C31.1016 28.3516 30.9141 27.888 30.5391 27.5547C30.1693 27.2161 29.638 27.0469 28.9453 27.0469C28.2995 27.0469 27.7969 27.1849 27.4375 27.4609C27.0833 27.737 26.9062 28.1224 26.9062 28.6172C26.9062 29.0339 27.099 29.3828 27.4844 29.6641C27.8698 29.9401 28.5052 30.2109 29.3906 30.4766C30.276 30.737 30.987 31.0365 31.5234 31.375C32.0599 31.7083 32.4531 32.0938 32.7031 32.5312C32.9531 32.9635 33.0781 33.4714 33.0781 34.0547C33.0781 35.0026 32.7135 35.7578 31.9844 36.3203C31.2604 36.8776 30.276 37.1562 29.0312 37.1562C28.2083 37.1562 27.4505 37.0052 26.7578 36.7031C26.0703 36.3958 25.5339 35.974 25.1484 35.4375C24.7682 34.901 24.5781 34.276 24.5781 33.5625H26.5547C26.5547 34.2083 26.7682 34.7083 27.1953 35.0625C27.6224 35.4167 28.2344 35.5938 29.0312 35.5938C29.7188 35.5938 30.2344 35.4557 30.5781 35.1797C30.9271 34.8984 31.1016 34.5286 31.1016 34.0703ZM39.6797 37C39.5964 36.8385 39.5234 36.5755 39.4609 36.2109C38.8568 36.8411 38.1172 37.1562 37.2422 37.1562C36.3932 37.1562 35.7005 36.9141 35.1641 36.4297C34.6276 35.9453 34.3594 35.3464 34.3594 34.6328C34.3594 33.7318 34.6927 33.0417 35.3594 32.5625C36.0312 32.0781 36.9896 31.8359 38.2344 31.8359H39.3984V31.2812C39.3984 30.8438 39.276 30.4948 39.0312 30.2344C38.7865 29.9688 38.4141 29.8359 37.9141 29.8359C37.4818 29.8359 37.1276 29.9453 36.8516 30.1641C36.5755 30.3776 36.4375 30.651 36.4375 30.9844H34.5391C34.5391 30.5208 34.6927 30.0885 35 29.6875C35.3073 29.2812 35.724 28.9635 36.25 28.7344C36.7812 28.5052 37.3724 28.3906 38.0234 28.3906C39.013 28.3906 39.8021 28.6406 40.3906 29.1406C40.9792 29.6354 41.2812 30.3333 41.2969 31.2344V35.0469C41.2969 35.8073 41.4036 36.4141 41.6172 36.8672V37H39.6797ZM37.5938 35.6328C37.9688 35.6328 38.3203 35.5417 38.6484 35.3594C38.9818 35.1771 39.2318 34.9323 39.3984 34.625V33.0312H38.375C37.6719 33.0312 37.1432 33.1536 36.7891 33.3984C36.4349 33.6432 36.2578 33.9896 36.2578 34.4375C36.2578 34.8021 36.3776 35.0938 36.6172 35.3125C36.862 35.526 37.1875 35.6328 37.5938 35.6328ZM46.1406 34.5938L47.9297 28.5469H49.8906L46.9609 37H45.3125L42.3594 28.5469H44.3281L46.1406 34.5938ZM53.1016 37H51.2031V28.5469H53.1016V37ZM51.0859 26.3516C51.0859 26.0599 51.1771 25.8177 51.3594 25.625C51.5469 25.4323 51.8125 25.3359 52.1562 25.3359C52.5 25.3359 52.7656 25.4323 52.9531 25.625C53.1406 25.8177 53.2344 26.0599 53.2344 26.3516C53.2344 26.638 53.1406 26.8776 52.9531 27.0703C52.7656 27.2578 52.5 27.3516 52.1562 27.3516C51.8125 27.3516 51.5469 27.2578 51.3594 27.0703C51.1771 26.8776 51.0859 26.638 51.0859 26.3516ZM56.9375 28.5469L56.9922 29.5234C57.6172 28.7682 58.4375 28.3906 59.4531 28.3906C61.2135 28.3906 62.1094 29.3984 62.1406 31.4141V37H60.2422V31.5234C60.2422 30.987 60.125 30.5911 59.8906 30.3359C59.6615 30.0755 59.2839 29.9453 58.7578 29.9453C57.9922 29.9453 57.4219 30.2917 57.0469 30.9844V37H55.1484V28.5469H56.9375ZM63.75 32.7109C63.75 31.3984 64.0573 30.3516 64.6719 29.5703C65.2917 28.7839 66.112 28.3906 67.1328 28.3906C68.0964 28.3906 68.8542 28.7266 69.4062 29.3984L69.4922 28.5469H71.2031V36.7422C71.2031 37.8516 70.8568 38.7266 70.1641 39.3672C69.4766 40.0078 68.5469 40.3281 67.375 40.3281C66.7552 40.3281 66.1484 40.1979 65.5547 39.9375C64.9661 39.6823 64.5182 39.3464 64.2109 38.9297L65.1094 37.7891C65.6927 38.4818 66.4115 38.8281 67.2656 38.8281C67.8958 38.8281 68.3932 38.6562 68.7578 38.3125C69.1224 37.974 69.3047 37.474 69.3047 36.8125V36.2422C68.7578 36.8516 68.0286 37.1562 67.1172 37.1562C66.1276 37.1562 65.3177 36.763 64.6875 35.9766C64.0625 35.1901 63.75 34.1016 63.75 32.7109ZM65.6406 32.875C65.6406 33.724 65.8125 34.3932 66.1562 34.8828C66.5052 35.3672 66.987 35.6094 67.6016 35.6094C68.3672 35.6094 68.9349 35.2812 69.3047 34.625V30.9062C68.9453 30.2656 68.3828 29.9453 67.6172 29.9453C66.9922 29.9453 66.5052 30.1927 66.1562 30.6875C65.8125 31.1823 65.6406 31.9115 65.6406 32.875ZM77.8984 34.7031C77.8984 34.3646 77.7578 34.1068 77.4766 33.9297C77.2005 33.7526 76.7396 33.5964 76.0938 33.4609C75.4479 33.3255 74.9089 33.1536 74.4766 32.9453C73.5286 32.487 73.0547 31.8229 73.0547 30.9531C73.0547 30.224 73.362 29.6146 73.9766 29.125C74.5911 28.6354 75.3724 28.3906 76.3203 28.3906C77.3307 28.3906 78.1458 28.6406 78.7656 29.1406C79.3906 29.6406 79.7031 30.2891 79.7031 31.0859H77.8047C77.8047 30.7214 77.6693 30.4193 77.3984 30.1797C77.1276 29.9349 76.7682 29.8125 76.3203 29.8125C75.9036 29.8125 75.5625 29.9089 75.2969 30.1016C75.0365 30.2943 74.9062 30.5521 74.9062 30.875C74.9062 31.1667 75.0286 31.3932 75.2734 31.5547C75.5182 31.7161 76.013 31.8802 76.7578 32.0469C77.5026 32.2083 78.0859 32.4036 78.5078 32.6328C78.9349 32.8568 79.25 33.1276 79.4531 33.4453C79.6615 33.763 79.7656 34.1484 79.7656 34.6016C79.7656 35.362 79.4505 35.9792 78.8203 36.4531C78.1901 36.9219 77.3646 37.1562 76.3438 37.1562C75.651 37.1562 75.0339 37.0312 74.4922 36.7812C73.9505 36.5312 73.5286 36.1875 73.2266 35.75C72.9245 35.3125 72.7734 34.8411 72.7734 34.3359H74.6172C74.6432 34.7839 74.8125 35.1302 75.125 35.375C75.4375 35.6146 75.8516 35.7344 76.3672 35.7344C76.8672 35.7344 77.2474 35.6406 77.5078 35.4531C77.7682 35.2604 77.8984 35.0104 77.8984 34.7031ZM91.9609 34.3516H87.5547L86.6328 37H84.5781L88.875 25.625H90.6484L94.9531 37H92.8906L91.9609 34.3516ZM88.1094 32.7578H91.4062L89.7578 28.0391L88.1094 32.7578ZM99.5391 35.6406C100.013 35.6406 100.406 35.5026 100.719 35.2266C101.031 34.9505 101.198 34.6094 101.219 34.2031H103.008C102.987 34.7292 102.823 35.2214 102.516 35.6797C102.208 36.1328 101.792 36.4922 101.266 36.7578C100.74 37.0234 100.172 37.1562 99.5625 37.1562C98.3802 37.1562 97.4427 36.7734 96.75 36.0078C96.0573 35.2422 95.7109 34.1849 95.7109 32.8359V32.6406C95.7109 31.3542 96.0547 30.3255 96.7422 29.5547C97.4297 28.7786 98.3672 28.3906 99.5547 28.3906C100.56 28.3906 101.378 28.6849 102.008 29.2734C102.643 29.8568 102.977 30.625 103.008 31.5781H101.219C101.198 31.0938 101.031 30.6953 100.719 30.3828C100.411 30.0703 100.018 29.9141 99.5391 29.9141C98.9245 29.9141 98.4505 30.138 98.1172 30.5859C97.7839 31.0286 97.6146 31.7031 97.6094 32.6094V32.9141C97.6094 33.8307 97.7734 34.5156 98.1016 34.9688C98.4349 35.4167 98.9141 35.6406 99.5391 35.6406ZM107.914 35.6406C108.388 35.6406 108.781 35.5026 109.094 35.2266C109.406 34.9505 109.573 34.6094 109.594 34.2031H111.383C111.362 34.7292 111.198 35.2214 110.891 35.6797C110.583 36.1328 110.167 36.4922 109.641 36.7578C109.115 37.0234 108.547 37.1562 107.938 37.1562C106.755 37.1562 105.818 36.7734 105.125 36.0078C104.432 35.2422 104.086 34.1849 104.086 32.8359V32.6406C104.086 31.3542 104.43 30.3255 105.117 29.5547C105.805 28.7786 106.742 28.3906 107.93 28.3906C108.935 28.3906 109.753 28.6849 110.383 29.2734C111.018 29.8568 111.352 30.625 111.383 31.5781H109.594C109.573 31.0938 109.406 30.6953 109.094 30.3828C108.786 30.0703 108.393 29.9141 107.914 29.9141C107.299 29.9141 106.826 30.138 106.492 30.5859C106.159 31.0286 105.99 31.7031 105.984 32.6094V32.9141C105.984 33.8307 106.148 34.5156 106.477 34.9688C106.81 35.4167 107.289 35.6406 107.914 35.6406ZM112.461 32.6953C112.461 31.8672 112.625 31.1224 112.953 30.4609C113.281 29.7943 113.742 29.2839 114.336 28.9297C114.93 28.5703 115.612 28.3906 116.383 28.3906C117.523 28.3906 118.448 28.7578 119.156 29.4922C119.87 30.2266 120.255 31.2005 120.312 32.4141L120.32 32.8594C120.32 33.6927 120.159 34.4375 119.836 35.0938C119.518 35.75 119.06 36.2578 118.461 36.6172C117.867 36.9766 117.18 37.1562 116.398 37.1562C115.206 37.1562 114.25 36.7604 113.531 35.9688C112.818 35.1719 112.461 34.112 112.461 32.7891V32.6953ZM114.359 32.8594C114.359 33.7292 114.539 34.4115 114.898 34.9062C115.258 35.3958 115.758 35.6406 116.398 35.6406C117.039 35.6406 117.536 35.3906 117.891 34.8906C118.25 34.3906 118.43 33.6589 118.43 32.6953C118.43 31.8411 118.245 31.1641 117.875 30.6641C117.51 30.1641 117.013 29.9141 116.383 29.9141C115.763 29.9141 115.271 30.1615 114.906 30.6562C114.542 31.1458 114.359 31.8802 114.359 32.8594ZM127.047 36.1719C126.49 36.8281 125.698 37.1562 124.672 37.1562C123.755 37.1562 123.06 36.888 122.586 36.3516C122.117 35.8151 121.883 35.0391 121.883 34.0234V28.5469H123.781V34C123.781 35.0729 124.227 35.6094 125.117 35.6094C126.039 35.6094 126.661 35.2786 126.984 34.6172V28.5469H128.883V37H127.094L127.047 36.1719ZM132.578 28.5469L132.633 29.5234C133.258 28.7682 134.078 28.3906 135.094 28.3906C136.854 28.3906 137.75 29.3984 137.781 31.4141V37H135.883V31.5234C135.883 30.987 135.766 30.5911 135.531 30.3359C135.302 30.0755 134.924 29.9453 134.398 29.9453C133.633 29.9453 133.062 30.2917 132.688 30.9844V37H130.789V28.5469H132.578ZM142.102 26.4922V28.5469H143.594V29.9531H142.102V34.6719C142.102 34.9948 142.164 35.2292 142.289 35.375C142.419 35.5156 142.648 35.5859 142.977 35.5859C143.195 35.5859 143.417 35.5599 143.641 35.5078V36.9766C143.208 37.0964 142.792 37.1562 142.391 37.1562C140.932 37.1562 140.203 36.3516 140.203 34.7422V29.9531H138.812V28.5469H140.203V26.4922H142.102Z" fill="white"/>
<path d="M32.0781 52.1484C32.0781 53.8411 31.7891 55.099 31.2109 55.9219C30.6328 56.7448 29.7292 57.1562 28.5 57.1562C27.2865 57.1562 26.388 56.7552 25.8047 55.9531C25.2214 55.1458 24.9193 53.9427 24.8984 52.3438V50.4141C24.8984 48.7422 25.1875 47.5 25.7656 46.6875C26.3438 45.875 27.25 45.4688 28.4844 45.4688C29.7083 45.4688 30.6094 45.862 31.1875 46.6484C31.7656 47.4297 32.0625 48.638 32.0781 50.2734V52.1484ZM30.6328 50.1719C30.6328 48.9479 30.4609 48.0573 30.1172 47.5C29.7734 46.9375 29.2292 46.6562 28.4844 46.6562C27.7448 46.6562 27.2057 46.9349 26.8672 47.4922C26.5286 48.0495 26.3542 48.9062 26.3438 50.0625V52.375C26.3438 53.6042 26.5208 54.513 26.875 55.1016C27.2344 55.6849 27.776 55.9766 28.5 55.9766C29.2135 55.9766 29.7422 55.7005 30.0859 55.1484C30.4349 54.5964 30.6172 53.7266 30.6328 52.5391V50.1719ZM41.0625 52.1484C41.0625 53.8411 40.7734 55.099 40.1953 55.9219C39.6172 56.7448 38.7135 57.1562 37.4844 57.1562C36.2708 57.1562 35.3724 56.7552 34.7891 55.9531C34.2057 55.1458 33.9036 53.9427 33.8828 52.3438V50.4141C33.8828 48.7422 34.1719 47.5 34.75 46.6875C35.3281 45.875 36.2344 45.4688 37.4688 45.4688C38.6927 45.4688 39.5938 45.862 40.1719 46.6484C40.75 47.4297 41.0469 48.638 41.0625 50.2734V52.1484ZM39.6172 50.1719C39.6172 48.9479 39.4453 48.0573 39.1016 47.5C38.7578 46.9375 38.2135 46.6562 37.4688 46.6562C36.7292 46.6562 36.1901 46.9349 35.8516 47.4922C35.513 48.0495 35.3385 48.9062 35.3281 50.0625V52.375C35.3281 53.6042 35.5052 54.513 35.8594 55.1016C36.2188 55.6849 36.7604 55.9766 37.4844 55.9766C38.1979 55.9766 38.7266 55.7005 39.0703 55.1484C39.4193 54.5964 39.6016 53.7266 39.6172 52.5391V50.1719ZM48.5859 45.6172V46.8438H48.3203C47.1953 46.8646 46.2995 47.1979 45.6328 47.8438C44.9661 48.4896 44.5807 49.3984 44.4766 50.5703C45.0755 49.8828 45.8932 49.5391 46.9297 49.5391C47.9193 49.5391 48.7083 49.888 49.2969 50.5859C49.8906 51.2839 50.1875 52.1849 50.1875 53.2891C50.1875 54.4609 49.8672 55.3984 49.2266 56.1016C48.5911 56.8047 47.737 57.1562 46.6641 57.1562C45.5755 57.1562 44.6927 56.7396 44.0156 55.9062C43.3385 55.0677 43 53.9896 43 52.6719V52.1172C43 50.0234 43.4453 48.4245 44.3359 47.3203C45.2318 46.2109 46.5625 45.6432 48.3281 45.6172H48.5859ZM46.6875 50.7422C46.1927 50.7422 45.737 50.8906 45.3203 51.1875C44.9036 51.4844 44.6146 51.8568 44.4531 52.3047V52.8359C44.4531 53.7734 44.6641 54.5286 45.0859 55.1016C45.5078 55.6745 46.0339 55.9609 46.6641 55.9609C47.3151 55.9609 47.8255 55.7214 48.1953 55.2422C48.5703 54.763 48.7578 54.1354 48.7578 53.3594C48.7578 52.5781 48.5677 51.9479 48.1875 51.4688C47.8125 50.9844 47.3125 50.7422 46.6875 50.7422ZM56.6484 57H55.1953V47.3672L52.2812 48.4375V47.125L56.4219 45.5703H56.6484V57ZM68.2266 46.4375L63.5156 57H62L66.6953 46.8125H60.5391V45.625H68.2266V46.4375ZM76.7656 48.5938C76.7656 49.1615 76.6146 49.6667 76.3125 50.1094C76.0156 50.5521 75.612 50.8984 75.1016 51.1484C75.6953 51.4036 76.1641 51.776 76.5078 52.2656C76.8568 52.7552 77.0312 53.3099 77.0312 53.9297C77.0312 54.9141 76.6979 55.6979 76.0312 56.2812C75.3698 56.8646 74.4974 57.1562 73.4141 57.1562C72.3203 57.1562 71.4427 56.8646 70.7812 56.2812C70.125 55.6927 69.7969 54.9089 69.7969 53.9297C69.7969 53.3151 69.9635 52.7604 70.2969 52.2656C70.6354 51.7708 71.1016 51.3958 71.6953 51.1406C71.1901 50.8906 70.7917 50.5443 70.5 50.1016C70.2083 49.6589 70.0625 49.1562 70.0625 48.5938C70.0625 47.6354 70.3698 46.875 70.9844 46.3125C71.599 45.75 72.4089 45.4688 73.4141 45.4688C74.4141 45.4688 75.2214 45.75 75.8359 46.3125C76.4557 46.875 76.7656 47.6354 76.7656 48.5938ZM75.5859 53.8984C75.5859 53.263 75.3828 52.7448 74.9766 52.3438C74.5755 51.9427 74.0495 51.7422 73.3984 51.7422C72.7474 51.7422 72.224 51.9401 71.8281 52.3359C71.4375 52.7318 71.2422 53.2526 71.2422 53.8984C71.2422 54.5443 71.4323 55.0521 71.8125 55.4219C72.1979 55.7917 72.7318 55.9766 73.4141 55.9766C74.0911 55.9766 74.6224 55.7917 75.0078 55.4219C75.3932 55.0469 75.5859 54.5391 75.5859 53.8984ZM73.4141 46.6562C72.8464 46.6562 72.3854 46.8333 72.0312 47.1875C71.6823 47.5365 71.5078 48.013 71.5078 48.6172C71.5078 49.1953 71.6797 49.6641 72.0234 50.0234C72.3724 50.3776 72.8359 50.5547 73.4141 50.5547C73.9922 50.5547 74.4531 50.3776 74.7969 50.0234C75.1458 49.6641 75.3203 49.1953 75.3203 48.6172C75.3203 48.0391 75.1406 47.5677 74.7812 47.2031C74.4219 46.8385 73.9661 46.6562 73.4141 46.6562ZM84.3906 52C84.0885 52.3594 83.7266 52.6484 83.3047 52.8672C82.888 53.0859 82.4297 53.1953 81.9297 53.1953C81.2734 53.1953 80.7005 53.0339 80.2109 52.7109C79.7266 52.388 79.3516 51.9349 79.0859 51.3516C78.8203 50.763 78.6875 50.1146 78.6875 49.4062C78.6875 48.6458 78.8307 47.9609 79.1172 47.3516C79.4089 46.7422 79.8203 46.276 80.3516 45.9531C80.8828 45.6302 81.5026 45.4688 82.2109 45.4688C83.3359 45.4688 84.2214 45.8906 84.8672 46.7344C85.5182 47.5729 85.8438 48.7188 85.8438 50.1719V50.5938C85.8438 52.8073 85.4062 54.4245 84.5312 55.4453C83.6562 56.4609 82.3359 56.9818 80.5703 57.0078H80.2891V55.7891H80.5938C81.7865 55.7682 82.7031 55.4583 83.3438 54.8594C83.9844 54.2552 84.3333 53.3021 84.3906 52ZM82.1641 52C82.6484 52 83.0938 51.8516 83.5 51.5547C83.9115 51.2578 84.2109 50.8906 84.3984 50.4531V49.875C84.3984 48.9271 84.1927 48.1562 83.7812 47.5625C83.3698 46.9688 82.849 46.6719 82.2188 46.6719C81.5833 46.6719 81.0729 46.9167 80.6875 47.4062C80.3021 47.8906 80.1094 48.5312 80.1094 49.3281C80.1094 50.1042 80.2943 50.7448 80.6641 51.25C81.0391 51.75 81.5391 52 82.1641 52ZM93.375 52C93.0729 52.3594 92.7109 52.6484 92.2891 52.8672C91.8724 53.0859 91.4141 53.1953 90.9141 53.1953C90.2578 53.1953 89.6849 53.0339 89.1953 52.7109C88.7109 52.388 88.3359 51.9349 88.0703 51.3516C87.8047 50.763 87.6719 50.1146 87.6719 49.4062C87.6719 48.6458 87.8151 47.9609 88.1016 47.3516C88.3932 46.7422 88.8047 46.276 89.3359 45.9531C89.8672 45.6302 90.487 45.4688 91.1953 45.4688C92.3203 45.4688 93.2057 45.8906 93.8516 46.7344C94.5026 47.5729 94.8281 48.7188 94.8281 50.1719V50.5938C94.8281 52.8073 94.3906 54.4245 93.5156 55.4453C92.6406 56.4609 91.3203 56.9818 89.5547 57.0078H89.2734V55.7891H89.5781C90.7708 55.7682 91.6875 55.4583 92.3281 54.8594C92.9688 54.2552 93.3177 53.3021 93.375 52ZM91.1484 52C91.6328 52 92.0781 51.8516 92.4844 51.5547C92.8958 51.2578 93.1953 50.8906 93.3828 50.4531V49.875C93.3828 48.9271 93.1771 48.1562 92.7656 47.5625C92.3542 46.9688 91.8333 46.6719 91.2031 46.6719C90.5677 46.6719 90.0573 46.9167 89.6719 47.4062C89.2865 47.8906 89.0938 48.5312 89.0938 49.3281C89.0938 50.1042 89.2786 50.7448 89.6484 51.25C90.0234 51.75 90.5234 52 91.1484 52ZM102.922 53.1797H104.5V54.3594H102.922V57H101.469V54.3594H96.2891V53.5078L101.383 45.625H102.922V53.1797ZM97.9297 53.1797H101.469V47.6016L101.297 47.9141L97.9297 53.1797ZM107.906 50.6094H108.992C109.674 50.599 110.211 50.4193 110.602 50.0703C110.992 49.7214 111.188 49.25 111.188 48.6562C111.188 47.3229 110.523 46.6562 109.195 46.6562C108.57 46.6562 108.07 46.8359 107.695 47.1953C107.326 47.5495 107.141 48.0208 107.141 48.6094H105.695C105.695 47.7083 106.023 46.9609 106.68 46.3672C107.341 45.7682 108.18 45.4688 109.195 45.4688C110.268 45.4688 111.109 45.7526 111.719 46.3203C112.328 46.888 112.633 47.6771 112.633 48.6875C112.633 49.1823 112.471 49.6615 112.148 50.125C111.831 50.5885 111.396 50.9349 110.844 51.1641C111.469 51.362 111.951 51.6901 112.289 52.1484C112.633 52.6068 112.805 53.1667 112.805 53.8281C112.805 54.849 112.471 55.6589 111.805 56.2578C111.138 56.8568 110.271 57.1562 109.203 57.1562C108.135 57.1562 107.266 56.8672 106.594 56.2891C105.927 55.7109 105.594 54.9479 105.594 54H107.047C107.047 54.599 107.242 55.0781 107.633 55.4375C108.023 55.7969 108.547 55.9766 109.203 55.9766C109.901 55.9766 110.435 55.7943 110.805 55.4297C111.174 55.0651 111.359 54.5417 111.359 53.8594C111.359 53.1979 111.156 52.6901 110.75 52.3359C110.344 51.9818 109.758 51.7995 108.992 51.7891H107.906V50.6094Z" fill="white"/>
<path d="M197.464 93.0205H192.507L191.47 96H189.158L193.992 83.2031H195.987L200.83 96H198.51L197.464 93.0205ZM193.131 91.2275H196.84L194.985 85.9189L193.131 91.2275ZM204.996 93.293L207.009 86.4902H209.215L205.919 96H204.064L200.742 86.4902H202.957L204.996 93.293ZM216.097 96C216.003 95.8184 215.921 95.5225 215.851 95.1123C215.171 95.8213 214.339 96.1758 213.354 96.1758C212.399 96.1758 211.62 95.9033 211.017 95.3584C210.413 94.8135 210.111 94.1396 210.111 93.3369C210.111 92.3232 210.486 91.5469 211.236 91.0078C211.992 90.4629 213.07 90.1904 214.471 90.1904H215.78V89.5664C215.78 89.0742 215.643 88.6816 215.367 88.3887C215.092 88.0898 214.673 87.9404 214.11 87.9404C213.624 87.9404 213.226 88.0635 212.915 88.3096C212.604 88.5498 212.449 88.8574 212.449 89.2324H210.313C210.313 88.7109 210.486 88.2246 210.832 87.7734C211.178 87.3164 211.646 86.959 212.238 86.7012C212.836 86.4434 213.501 86.3145 214.233 86.3145C215.347 86.3145 216.234 86.5957 216.896 87.1582C217.559 87.7148 217.898 88.5 217.916 89.5137V93.8027C217.916 94.6582 218.036 95.3408 218.276 95.8506V96H216.097ZM213.75 94.4619C214.172 94.4619 214.567 94.3594 214.937 94.1543C215.312 93.9492 215.593 93.6738 215.78 93.3281V91.5352H214.629C213.838 91.5352 213.243 91.6729 212.845 91.9482C212.446 92.2236 212.247 92.6133 212.247 93.1172C212.247 93.5273 212.382 93.8555 212.651 94.1016C212.927 94.3418 213.293 94.4619 213.75 94.4619ZM222.425 96H220.289V86.4902H222.425V96ZM220.157 84.0205C220.157 83.6924 220.26 83.4199 220.465 83.2031C220.676 82.9863 220.975 82.8779 221.361 82.8779C221.748 82.8779 222.047 82.9863 222.258 83.2031C222.469 83.4199 222.574 83.6924 222.574 84.0205C222.574 84.3428 222.469 84.6123 222.258 84.8291C222.047 85.04 221.748 85.1455 221.361 85.1455C220.975 85.1455 220.676 85.04 220.465 84.8291C220.26 84.6123 220.157 84.3428 220.157 84.0205ZM227.03 96H224.895V82.5H227.03V96ZM235.046 96C234.952 95.8184 234.87 95.5225 234.8 95.1123C234.12 95.8213 233.288 96.1758 232.304 96.1758C231.349 96.1758 230.569 95.9033 229.966 95.3584C229.362 94.8135 229.061 94.1396 229.061 93.3369C229.061 92.3232 229.436 91.5469 230.186 91.0078C230.941 90.4629 232.02 90.1904 233.42 90.1904H234.729V89.5664C234.729 89.0742 234.592 88.6816 234.316 88.3887C234.041 88.0898 233.622 87.9404 233.06 87.9404C232.573 87.9404 232.175 88.0635 231.864 88.3096C231.554 88.5498 231.398 88.8574 231.398 89.2324H229.263C229.263 88.7109 229.436 88.2246 229.781 87.7734C230.127 87.3164 230.596 86.959 231.188 86.7012C231.785 86.4434 232.45 86.3145 233.183 86.3145C234.296 86.3145 235.184 86.5957 235.846 87.1582C236.508 87.7148 236.848 88.5 236.865 89.5137V93.8027C236.865 94.6582 236.985 95.3408 237.226 95.8506V96H235.046ZM232.699 94.4619C233.121 94.4619 233.517 94.3594 233.886 94.1543C234.261 93.9492 234.542 93.6738 234.729 93.3281V91.5352H233.578C232.787 91.5352 232.192 91.6729 231.794 91.9482C231.396 92.2236 231.196 92.6133 231.196 93.1172C231.196 93.5273 231.331 93.8555 231.601 94.1016C231.876 94.3418 232.242 94.4619 232.699 94.4619ZM247.447 91.3418C247.447 92.8184 247.116 93.9932 246.454 94.8662C245.798 95.7393 244.893 96.1758 243.738 96.1758C242.625 96.1758 241.758 95.7744 241.137 94.9717L241.031 96H239.098V82.5H241.233V87.4043C241.849 86.6777 242.678 86.3145 243.721 86.3145C244.881 86.3145 245.792 86.7451 246.454 87.6064C247.116 88.4678 247.447 89.6719 247.447 91.2188V91.3418ZM245.312 91.1572C245.312 90.126 245.13 89.3525 244.767 88.8369C244.403 88.3213 243.876 88.0635 243.185 88.0635C242.259 88.0635 241.608 88.4678 241.233 89.2764V93.1963C241.614 94.0225 242.271 94.4355 243.202 94.4355C243.87 94.4355 244.386 94.1865 244.749 93.6885C245.112 93.1904 245.3 92.4375 245.312 91.4297V91.1572ZM251.517 96H249.381V82.5H251.517V96ZM258.038 96.1758C256.685 96.1758 255.586 95.751 254.742 94.9014C253.904 94.0459 253.485 92.9092 253.485 91.4912V91.2275C253.485 90.2783 253.667 89.4316 254.03 88.6875C254.399 87.9375 254.915 87.3545 255.577 86.9385C256.239 86.5225 256.978 86.3145 257.792 86.3145C259.087 86.3145 260.086 86.7275 260.789 87.5537C261.498 88.3799 261.853 89.5488 261.853 91.0605V91.9219H255.639C255.703 92.707 255.964 93.3281 256.421 93.7852C256.884 94.2422 257.464 94.4707 258.161 94.4707C259.14 94.4707 259.937 94.0752 260.552 93.2842L261.703 94.3828C261.322 94.9512 260.812 95.3936 260.174 95.71C259.541 96.0205 258.829 96.1758 258.038 96.1758ZM257.783 88.0283C257.197 88.0283 256.723 88.2334 256.359 88.6436C256.002 89.0537 255.773 89.625 255.674 90.3574H259.743V90.1992C259.696 89.4844 259.506 88.9453 259.172 88.582C258.838 88.2129 258.375 88.0283 257.783 88.0283ZM276.346 91.3418C276.346 92.8184 276.015 93.9932 275.353 94.8662C274.696 95.7393 273.791 96.1758 272.637 96.1758C271.523 96.1758 270.656 95.7744 270.035 94.9717L269.93 96H267.996V82.5H270.132V87.4043C270.747 86.6777 271.576 86.3145 272.619 86.3145C273.779 86.3145 274.69 86.7451 275.353 87.6064C276.015 88.4678 276.346 89.6719 276.346 91.2188V91.3418ZM274.21 91.1572C274.21 90.126 274.028 89.3525 273.665 88.8369C273.302 88.3213 272.774 88.0635 272.083 88.0635C271.157 88.0635 270.507 88.4678 270.132 89.2764V93.1963C270.513 94.0225 271.169 94.4355 272.101 94.4355C272.769 94.4355 273.284 94.1865 273.647 93.6885C274.011 93.1904 274.198 92.4375 274.21 91.4297V91.1572ZM283.825 96C283.731 95.8184 283.649 95.5225 283.579 95.1123C282.899 95.8213 282.067 96.1758 281.083 96.1758C280.128 96.1758 279.349 95.9033 278.745 95.3584C278.142 94.8135 277.84 94.1396 277.84 93.3369C277.84 92.3232 278.215 91.5469 278.965 91.0078C279.721 90.4629 280.799 90.1904 282.199 90.1904H283.509V89.5664C283.509 89.0742 283.371 88.6816 283.096 88.3887C282.82 88.0898 282.401 87.9404 281.839 87.9404C281.353 87.9404 280.954 88.0635 280.644 88.3096C280.333 88.5498 280.178 88.8574 280.178 89.2324H278.042C278.042 88.7109 278.215 88.2246 278.561 87.7734C278.906 87.3164 279.375 86.959 279.967 86.7012C280.564 86.4434 281.229 86.3145 281.962 86.3145C283.075 86.3145 283.963 86.5957 284.625 87.1582C285.287 87.7148 285.627 88.5 285.645 89.5137V93.8027C285.645 94.6582 285.765 95.3408 286.005 95.8506V96H283.825ZM281.479 94.4619C281.9 94.4619 282.296 94.3594 282.665 94.1543C283.04 93.9492 283.321 93.6738 283.509 93.3281V91.5352H282.357C281.566 91.5352 280.972 91.6729 280.573 91.9482C280.175 92.2236 279.976 92.6133 279.976 93.1172C279.976 93.5273 280.11 93.8555 280.38 94.1016C280.655 94.3418 281.021 94.4619 281.479 94.4619ZM290.153 96H288.018V82.5H290.153V96ZM298.169 96C298.075 95.8184 297.993 95.5225 297.923 95.1123C297.243 95.8213 296.411 96.1758 295.427 96.1758C294.472 96.1758 293.692 95.9033 293.089 95.3584C292.485 94.8135 292.184 94.1396 292.184 93.3369C292.184 92.3232 292.559 91.5469 293.309 91.0078C294.064 90.4629 295.143 90.1904 296.543 90.1904H297.853V89.5664C297.853 89.0742 297.715 88.6816 297.439 88.3887C297.164 88.0898 296.745 87.9404 296.183 87.9404C295.696 87.9404 295.298 88.0635 294.987 88.3096C294.677 88.5498 294.521 88.8574 294.521 89.2324H292.386C292.386 88.7109 292.559 88.2246 292.904 87.7734C293.25 87.3164 293.719 86.959 294.311 86.7012C294.908 86.4434 295.573 86.3145 296.306 86.3145C297.419 86.3145 298.307 86.5957 298.969 87.1582C299.631 87.7148 299.971 88.5 299.988 89.5137V93.8027C299.988 94.6582 300.108 95.3408 300.349 95.8506V96H298.169ZM295.822 94.4619C296.244 94.4619 296.64 94.3594 297.009 94.1543C297.384 93.9492 297.665 93.6738 297.853 93.3281V91.5352H296.701C295.91 91.5352 295.315 91.6729 294.917 91.9482C294.519 92.2236 294.319 92.6133 294.319 93.1172C294.319 93.5273 294.454 93.8555 294.724 94.1016C294.999 94.3418 295.365 94.4619 295.822 94.4619ZM304.207 86.4902L304.269 87.5889C304.972 86.7393 305.895 86.3145 307.037 86.3145C309.018 86.3145 310.025 87.4482 310.061 89.7158V96H307.925V89.8389C307.925 89.2354 307.793 88.79 307.529 88.5029C307.271 88.21 306.847 88.0635 306.255 88.0635C305.394 88.0635 304.752 88.4531 304.33 89.2324V96H302.194V86.4902H304.207ZM316.151 94.4707C316.685 94.4707 317.127 94.3154 317.479 94.0049C317.83 93.6943 318.018 93.3105 318.041 92.8535H320.054C320.03 93.4453 319.846 93.999 319.5 94.5146C319.154 95.0244 318.686 95.4287 318.094 95.7275C317.502 96.0264 316.863 96.1758 316.178 96.1758C314.848 96.1758 313.793 95.7451 313.014 94.8838C312.234 94.0225 311.845 92.833 311.845 91.3154V91.0957C311.845 89.6484 312.231 88.4912 313.005 87.624C313.778 86.751 314.833 86.3145 316.169 86.3145C317.3 86.3145 318.22 86.6455 318.929 87.3076C319.644 87.9639 320.019 88.8281 320.054 89.9004H318.041C318.018 89.3555 317.83 88.9072 317.479 88.5557C317.133 88.2041 316.69 88.0283 316.151 88.0283C315.46 88.0283 314.927 88.2803 314.552 88.7842C314.177 89.2822 313.986 90.041 313.98 91.0605V91.4033C313.98 92.4346 314.165 93.2051 314.534 93.7148C314.909 94.2188 315.448 94.4707 316.151 94.4707ZM325.854 96.1758C324.501 96.1758 323.402 95.751 322.559 94.9014C321.721 94.0459 321.302 92.9092 321.302 91.4912V91.2275C321.302 90.2783 321.483 89.4316 321.847 88.6875C322.216 87.9375 322.731 87.3545 323.394 86.9385C324.056 86.5225 324.794 86.3145 325.608 86.3145C326.903 86.3145 327.902 86.7275 328.605 87.5537C329.314 88.3799 329.669 89.5488 329.669 91.0605V91.9219H323.455C323.52 92.707 323.78 93.3281 324.237 93.7852C324.7 94.2422 325.28 94.4707 325.978 94.4707C326.956 94.4707 327.753 94.0752 328.368 93.2842L329.52 94.3828C329.139 94.9512 328.629 95.3936 327.99 95.71C327.357 96.0205 326.646 96.1758 325.854 96.1758ZM325.6 88.0283C325.014 88.0283 324.539 88.2334 324.176 88.6436C323.818 89.0537 323.59 89.625 323.49 90.3574H327.56V90.1992C327.513 89.4844 327.322 88.9453 326.988 88.582C326.654 88.2129 326.191 88.0283 325.6 88.0283Z" fill="white"/>
<path d="M189.761 111.749H192.503V113.78H189.761V115.697H192.503V117.729H189.761V124H186.549L182.601 117.729H178.297V124H175.098V117.729H172.419V115.697H175.098V113.78H172.419V111.749H175.098V105.516H178.297L182.22 111.749H186.574V105.516H189.761V111.749ZM184.695 115.697H186.574V113.78H183.489L184.695 115.697ZM178.297 115.697H181.318L180.112 113.78H178.297V115.697ZM186.574 118.681V117.729H185.978L186.574 118.681ZM178.297 111.749H178.843L178.297 110.886V111.749ZM211.216 117.411H213.514V119.887H211.216V124H208.131V119.887H200.146L200.057 118.008L208.029 105.516H211.216V117.411ZM203.294 117.411H208.131V109.692L207.902 110.099L203.294 117.411ZM227.605 116.218C227.605 118.875 227.106 120.881 226.107 122.235C225.117 123.581 223.606 124.254 221.575 124.254C219.578 124.254 218.071 123.598 217.056 122.286C216.049 120.966 215.532 119.015 215.507 116.434V113.234C215.507 110.577 216.002 108.584 216.992 107.255C217.991 105.926 219.51 105.262 221.55 105.262C223.573 105.262 225.079 105.909 226.069 107.204C227.068 108.499 227.58 110.437 227.605 113.019V116.218ZM224.521 112.765C224.521 111.03 224.284 109.76 223.81 108.956C223.336 108.144 222.582 107.737 221.55 107.737C220.543 107.737 219.802 108.122 219.328 108.893C218.854 109.654 218.604 110.848 218.579 112.473V116.662C218.579 118.389 218.82 119.675 219.303 120.521C219.785 121.368 220.543 121.791 221.575 121.791C222.565 121.791 223.298 121.402 223.771 120.623C224.245 119.836 224.495 118.609 224.521 116.941V112.765ZM242.383 116.218C242.383 118.875 241.883 120.881 240.885 122.235C239.895 123.581 238.384 124.254 236.353 124.254C234.355 124.254 232.849 123.598 231.833 122.286C230.826 120.966 230.31 119.015 230.284 116.434V113.234C230.284 110.577 230.779 108.584 231.77 107.255C232.768 105.926 234.287 105.262 236.327 105.262C238.35 105.262 239.856 105.909 240.847 107.204C241.845 108.499 242.357 110.437 242.383 113.019V116.218ZM239.298 112.765C239.298 111.03 239.061 109.76 238.587 108.956C238.113 108.144 237.36 107.737 236.327 107.737C235.32 107.737 234.579 108.122 234.105 108.893C233.632 109.654 233.382 110.848 233.356 112.473V116.662C233.356 118.389 233.598 119.675 234.08 120.521C234.562 121.368 235.32 121.791 236.353 121.791C237.343 121.791 238.075 121.402 238.549 120.623C239.023 119.836 239.272 118.609 239.298 116.941V112.765ZM245.747 128.164L244.084 127.174C244.575 126.404 244.909 125.731 245.087 125.155C245.273 124.588 245.37 124.008 245.379 123.416V121.017H248.159L248.146 123.238C248.138 124.135 247.91 125.033 247.461 125.93C247.021 126.835 246.45 127.58 245.747 128.164ZM262.873 116.218C262.873 118.875 262.374 120.881 261.375 122.235C260.385 123.581 258.874 124.254 256.843 124.254C254.845 124.254 253.339 123.598 252.323 122.286C251.316 120.966 250.8 119.015 250.774 116.434V113.234C250.774 110.577 251.27 108.584 252.26 107.255C253.258 105.926 254.778 105.262 256.817 105.262C258.84 105.262 260.347 105.909 261.337 107.204C262.336 108.499 262.848 110.437 262.873 113.019V116.218ZM259.788 112.765C259.788 111.03 259.551 109.76 259.077 108.956C258.603 108.144 257.85 107.737 256.817 107.737C255.81 107.737 255.07 108.122 254.596 108.893C254.122 109.654 253.872 110.848 253.847 112.473V116.662C253.847 118.389 254.088 119.675 254.57 120.521C255.053 121.368 255.81 121.791 256.843 121.791C257.833 121.791 258.565 121.402 259.039 120.623C259.513 119.836 259.763 118.609 259.788 116.941V112.765ZM277.65 116.218C277.65 118.875 277.151 120.881 276.152 122.235C275.162 123.581 273.651 124.254 271.62 124.254C269.623 124.254 268.116 123.598 267.101 122.286C266.093 120.966 265.577 119.015 265.552 116.434V113.234C265.552 110.577 266.047 108.584 267.037 107.255C268.036 105.926 269.555 105.262 271.595 105.262C273.618 105.262 275.124 105.909 276.114 107.204C277.113 108.499 277.625 110.437 277.65 113.019V116.218ZM274.565 112.765C274.565 111.03 274.328 109.76 273.854 108.956C273.381 108.144 272.627 107.737 271.595 107.737C270.588 107.737 269.847 108.122 269.373 108.893C268.899 109.654 268.649 110.848 268.624 112.473V116.662C268.624 118.389 268.865 119.675 269.348 120.521C269.83 121.368 270.588 121.791 271.62 121.791C272.61 121.791 273.342 121.402 273.816 120.623C274.29 119.836 274.54 118.609 274.565 116.941V112.765ZM292.428 116.218C292.428 118.875 291.928 120.881 290.93 122.235C289.939 123.581 288.429 124.254 286.397 124.254C284.4 124.254 282.894 123.598 281.878 122.286C280.871 120.966 280.354 119.015 280.329 116.434V113.234C280.329 110.577 280.824 108.584 281.814 107.255C282.813 105.926 284.332 105.262 286.372 105.262C288.395 105.262 289.901 105.909 290.892 107.204C291.89 108.499 292.402 110.437 292.428 113.019V116.218ZM289.343 112.765C289.343 111.03 289.106 109.76 288.632 108.956C288.158 108.144 287.405 107.737 286.372 107.737C285.365 107.737 284.624 108.122 284.15 108.893C283.676 109.654 283.427 110.848 283.401 112.473V116.662C283.401 118.389 283.643 119.675 284.125 120.521C284.607 121.368 285.365 121.791 286.397 121.791C287.388 121.791 288.12 121.402 288.594 120.623C289.068 119.836 289.317 118.609 289.343 116.941V112.765ZM297.277 120.75C297.853 120.75 298.297 120.915 298.61 121.245C298.924 121.567 299.08 121.973 299.08 122.464C299.08 122.946 298.924 123.348 298.61 123.67C298.297 123.983 297.853 124.14 297.277 124.14C296.727 124.14 296.291 123.983 295.97 123.67C295.648 123.357 295.487 122.955 295.487 122.464C295.487 121.973 295.644 121.567 295.957 121.245C296.27 120.915 296.71 120.75 297.277 120.75ZM303.244 114.834L304.247 105.516H314.175V108.182H306.812L306.304 112.6C307.159 112.109 308.123 111.863 309.198 111.863C310.959 111.863 312.326 112.426 313.299 113.552C314.281 114.677 314.771 116.192 314.771 118.097C314.771 119.976 314.23 121.474 313.146 122.591C312.063 123.7 310.578 124.254 308.69 124.254C306.998 124.254 305.593 123.776 304.476 122.819C303.367 121.854 302.766 120.585 302.673 119.011H305.656C305.775 119.908 306.096 120.598 306.621 121.08C307.146 121.554 307.831 121.791 308.678 121.791C309.626 121.791 310.362 121.452 310.887 120.775C311.42 120.098 311.687 119.176 311.687 118.008C311.687 116.882 311.395 115.993 310.811 115.342C310.227 114.682 309.423 114.352 308.398 114.352C307.84 114.352 307.366 114.428 306.977 114.58C306.587 114.724 306.164 115.012 305.707 115.443L303.244 114.834ZM326.794 105.427V107.979H326.413C324.687 108.004 323.307 108.478 322.274 109.4C321.242 110.323 320.628 111.631 320.434 113.323C321.424 112.282 322.689 111.762 324.229 111.762C325.863 111.762 327.149 112.337 328.089 113.488C329.037 114.639 329.511 116.125 329.511 117.944C329.511 119.823 328.956 121.347 327.848 122.515C326.747 123.674 325.3 124.254 323.506 124.254C321.661 124.254 320.163 123.573 319.012 122.21C317.869 120.847 317.298 119.062 317.298 116.853V115.799C317.298 112.557 318.085 110.018 319.659 108.182C321.242 106.345 323.514 105.427 326.477 105.427H326.794ZM323.48 114.25C322.803 114.25 322.181 114.44 321.614 114.821C321.056 115.202 320.645 115.71 320.383 116.345V117.284C320.383 118.655 320.671 119.747 321.246 120.56C321.822 121.364 322.566 121.766 323.48 121.766C324.395 121.766 325.118 121.423 325.651 120.737C326.185 120.052 326.451 119.15 326.451 118.033C326.451 116.916 326.18 116.006 325.639 115.304C325.097 114.601 324.378 114.25 323.48 114.25Z" fill="white"/>
<path d="M132.32 142V130.625H136.039C137.273 130.625 138.201 130.88 138.82 131.391C139.445 131.901 139.758 132.656 139.758 133.656C139.758 134.188 139.607 134.659 139.305 135.07C139.003 135.477 138.591 135.792 138.07 136.016C138.685 136.188 139.169 136.516 139.523 137C139.883 137.479 140.062 138.052 140.062 138.719C140.062 139.74 139.732 140.542 139.07 141.125C138.409 141.708 137.474 142 136.266 142H132.32ZM133.82 136.68V140.773H136.297C136.995 140.773 137.544 140.594 137.945 140.234C138.352 139.87 138.555 139.37 138.555 138.734C138.555 137.365 137.81 136.68 136.32 136.68H133.82ZM133.82 135.477H136.086C136.742 135.477 137.266 135.312 137.656 134.984C138.052 134.656 138.25 134.211 138.25 133.648C138.25 133.023 138.068 132.57 137.703 132.289C137.339 132.003 136.784 131.859 136.039 131.859H133.82V135.477ZM141.68 137.695C141.68 136.867 141.841 136.122 142.164 135.461C142.492 134.799 142.945 134.289 143.523 133.93C144.107 133.57 144.771 133.391 145.516 133.391C146.667 133.391 147.596 133.789 148.305 134.586C149.018 135.383 149.375 136.443 149.375 137.766V137.867C149.375 138.69 149.216 139.43 148.898 140.086C148.586 140.737 148.135 141.245 147.547 141.609C146.964 141.974 146.292 142.156 145.531 142.156C144.385 142.156 143.456 141.758 142.742 140.961C142.034 140.164 141.68 139.109 141.68 137.797V137.695ZM143.133 137.867C143.133 138.805 143.349 139.557 143.781 140.125C144.219 140.693 144.802 140.977 145.531 140.977C146.266 140.977 146.849 140.69 147.281 140.117C147.714 139.539 147.93 138.732 147.93 137.695C147.93 136.768 147.708 136.018 147.266 135.445C146.828 134.867 146.245 134.578 145.516 134.578C144.802 134.578 144.227 134.862 143.789 135.43C143.352 135.997 143.133 136.81 143.133 137.867ZM150.805 137.695C150.805 136.867 150.966 136.122 151.289 135.461C151.617 134.799 152.07 134.289 152.648 133.93C153.232 133.57 153.896 133.391 154.641 133.391C155.792 133.391 156.721 133.789 157.43 134.586C158.143 135.383 158.5 136.443 158.5 137.766V137.867C158.5 138.69 158.341 139.43 158.023 140.086C157.711 140.737 157.26 141.245 156.672 141.609C156.089 141.974 155.417 142.156 154.656 142.156C153.51 142.156 152.581 141.758 151.867 140.961C151.159 140.164 150.805 139.109 150.805 137.797V137.695ZM152.258 137.867C152.258 138.805 152.474 139.557 152.906 140.125C153.344 140.693 153.927 140.977 154.656 140.977C155.391 140.977 155.974 140.69 156.406 140.117C156.839 139.539 157.055 138.732 157.055 137.695C157.055 136.768 156.833 136.018 156.391 135.445C155.953 134.867 155.37 134.578 154.641 134.578C153.927 134.578 153.352 134.862 152.914 135.43C152.477 135.997 152.258 136.81 152.258 137.867ZM162.672 138.086L161.766 139.031V142H160.32V130H161.766V137.258L162.539 136.328L165.172 133.547H166.93L163.641 137.078L167.312 142H165.617L162.672 138.086ZM179.547 137.867C179.547 139.159 179.25 140.198 178.656 140.984C178.062 141.766 177.266 142.156 176.266 142.156C175.198 142.156 174.372 141.779 173.789 141.023L173.719 142H172.391V130H173.836V134.477C174.419 133.753 175.224 133.391 176.25 133.391C177.276 133.391 178.081 133.779 178.664 134.555C179.253 135.331 179.547 136.393 179.547 137.742V137.867ZM178.102 137.703C178.102 136.719 177.911 135.958 177.531 135.422C177.151 134.885 176.604 134.617 175.891 134.617C174.938 134.617 174.253 135.06 173.836 135.945V139.602C174.279 140.487 174.969 140.93 175.906 140.93C176.599 140.93 177.138 140.661 177.523 140.125C177.909 139.589 178.102 138.781 178.102 137.703ZM186.594 142C186.51 141.833 186.443 141.536 186.391 141.109C185.719 141.807 184.917 142.156 183.984 142.156C183.151 142.156 182.466 141.922 181.93 141.453C181.398 140.979 181.133 140.38 181.133 139.656C181.133 138.776 181.466 138.094 182.133 137.609C182.805 137.12 183.747 136.875 184.961 136.875H186.367V136.211C186.367 135.706 186.216 135.305 185.914 135.008C185.612 134.706 185.167 134.555 184.578 134.555C184.062 134.555 183.63 134.685 183.281 134.945C182.932 135.206 182.758 135.521 182.758 135.891H181.305C181.305 135.469 181.453 135.062 181.75 134.672C182.052 134.276 182.458 133.964 182.969 133.734C183.484 133.505 184.049 133.391 184.664 133.391C185.638 133.391 186.401 133.635 186.953 134.125C187.505 134.609 187.792 135.279 187.812 136.133V140.023C187.812 140.799 187.911 141.417 188.109 141.875V142H186.594ZM184.195 140.898C184.648 140.898 185.078 140.781 185.484 140.547C185.891 140.312 186.185 140.008 186.367 139.633V137.898H185.234C183.464 137.898 182.578 138.417 182.578 139.453C182.578 139.906 182.729 140.26 183.031 140.516C183.333 140.771 183.721 140.898 184.195 140.898ZM191.648 142H190.203V130H191.648V142ZM199.188 142C199.104 141.833 199.036 141.536 198.984 141.109C198.312 141.807 197.51 142.156 196.578 142.156C195.745 142.156 195.06 141.922 194.523 141.453C193.992 140.979 193.727 140.38 193.727 139.656C193.727 138.776 194.06 138.094 194.727 137.609C195.398 137.12 196.341 136.875 197.555 136.875H198.961V136.211C198.961 135.706 198.81 135.305 198.508 135.008C198.206 134.706 197.76 134.555 197.172 134.555C196.656 134.555 196.224 134.685 195.875 134.945C195.526 135.206 195.352 135.521 195.352 135.891H193.898C193.898 135.469 194.047 135.062 194.344 134.672C194.646 134.276 195.052 133.964 195.562 133.734C196.078 133.505 196.643 133.391 197.258 133.391C198.232 133.391 198.995 133.635 199.547 134.125C200.099 134.609 200.385 135.279 200.406 136.133V140.023C200.406 140.799 200.505 141.417 200.703 141.875V142H199.188ZM196.789 140.898C197.242 140.898 197.672 140.781 198.078 140.547C198.484 140.312 198.779 140.008 198.961 139.633V137.898H197.828C196.057 137.898 195.172 138.417 195.172 139.453C195.172 139.906 195.323 140.26 195.625 140.516C195.927 140.771 196.315 140.898 196.789 140.898ZM204.039 133.547L204.086 134.609C204.732 133.797 205.576 133.391 206.617 133.391C208.404 133.391 209.305 134.398 209.32 136.414V142H207.875V136.406C207.87 135.797 207.729 135.346 207.453 135.055C207.182 134.763 206.758 134.617 206.18 134.617C205.711 134.617 205.299 134.742 204.945 134.992C204.591 135.242 204.315 135.57 204.117 135.977V142H202.672V133.547H204.039ZM214.891 140.977C215.406 140.977 215.857 140.82 216.242 140.508C216.628 140.195 216.841 139.805 216.883 139.336H218.25C218.224 139.82 218.057 140.281 217.75 140.719C217.443 141.156 217.031 141.505 216.516 141.766C216.005 142.026 215.464 142.156 214.891 142.156C213.74 142.156 212.823 141.773 212.141 141.008C211.464 140.237 211.125 139.185 211.125 137.852V137.609C211.125 136.786 211.276 136.055 211.578 135.414C211.88 134.773 212.312 134.276 212.875 133.922C213.443 133.568 214.112 133.391 214.883 133.391C215.831 133.391 216.617 133.674 217.242 134.242C217.872 134.81 218.208 135.547 218.25 136.453H216.883C216.841 135.906 216.633 135.458 216.258 135.109C215.888 134.755 215.43 134.578 214.883 134.578C214.148 134.578 213.578 134.844 213.172 135.375C212.771 135.901 212.57 136.664 212.57 137.664V137.938C212.57 138.911 212.771 139.661 213.172 140.188C213.573 140.714 214.146 140.977 214.891 140.977ZM223.383 142.156C222.237 142.156 221.305 141.781 220.586 141.031C219.867 140.276 219.508 139.268 219.508 138.008V137.742C219.508 136.904 219.667 136.156 219.984 135.5C220.307 134.839 220.755 134.323 221.328 133.953C221.906 133.578 222.531 133.391 223.203 133.391C224.302 133.391 225.156 133.753 225.766 134.477C226.375 135.201 226.68 136.237 226.68 137.586V138.188H220.953C220.974 139.021 221.216 139.695 221.68 140.211C222.148 140.721 222.742 140.977 223.461 140.977C223.971 140.977 224.404 140.872 224.758 140.664C225.112 140.456 225.422 140.18 225.688 139.836L226.57 140.523C225.862 141.612 224.799 142.156 223.383 142.156ZM223.203 134.578C222.62 134.578 222.13 134.792 221.734 135.219C221.339 135.641 221.094 136.234 221 137H225.234V136.891C225.193 136.156 224.995 135.589 224.641 135.188C224.286 134.781 223.807 134.578 223.203 134.578ZM228.312 141.242C228.312 140.992 228.385 140.784 228.531 140.617C228.682 140.451 228.906 140.367 229.203 140.367C229.5 140.367 229.724 140.451 229.875 140.617C230.031 140.784 230.109 140.992 230.109 141.242C230.109 141.482 230.031 141.682 229.875 141.844C229.724 142.005 229.5 142.086 229.203 142.086C228.906 142.086 228.682 142.005 228.531 141.844C228.385 141.682 228.312 141.482 228.312 141.242ZM228.32 134.344C228.32 134.094 228.393 133.885 228.539 133.719C228.69 133.552 228.914 133.469 229.211 133.469C229.508 133.469 229.732 133.552 229.883 133.719C230.039 133.885 230.117 134.094 230.117 134.344C230.117 134.583 230.039 134.784 229.883 134.945C229.732 135.107 229.508 135.188 229.211 135.188C228.914 135.188 228.69 135.107 228.539 134.945C228.393 134.784 228.32 134.583 228.32 134.344ZM245.789 134.656H247.531V135.844H245.789V137H247.531V138.188H245.789V142H244.273L241.781 138.188H238.547V142H237.047V138.188H235.352V137H237.047V135.844H235.352V134.656H237.047V130.625H238.547L241.18 134.656H244.297V130.625H245.789V134.656ZM238.547 137H241.008L240.25 135.844H238.547V137ZM242.703 137H244.297V135.844H241.953L242.703 137ZM238.547 134.656H239.477L238.547 133.234V134.656ZM244.297 139.43V138.188H243.484L244.297 139.43ZM258.797 138.18H260.375V139.359H258.797V142H257.344V139.359H252.164V138.508L257.258 130.625H258.797V138.18ZM253.805 138.18H257.344V132.602L257.172 132.914L253.805 138.18ZM268.812 137.148C268.812 138.841 268.523 140.099 267.945 140.922C267.367 141.745 266.464 142.156 265.234 142.156C264.021 142.156 263.122 141.755 262.539 140.953C261.956 140.146 261.654 138.943 261.633 137.344V135.414C261.633 133.742 261.922 132.5 262.5 131.688C263.078 130.875 263.984 130.469 265.219 130.469C266.443 130.469 267.344 130.862 267.922 131.648C268.5 132.43 268.797 133.638 268.812 135.273V137.148ZM267.367 135.172C267.367 133.948 267.195 133.057 266.852 132.5C266.508 131.938 265.964 131.656 265.219 131.656C264.479 131.656 263.94 131.935 263.602 132.492C263.263 133.049 263.089 133.906 263.078 135.062V137.375C263.078 138.604 263.255 139.513 263.609 140.102C263.969 140.685 264.51 140.977 265.234 140.977C265.948 140.977 266.477 140.701 266.82 140.148C267.169 139.596 267.352 138.727 267.367 137.539V135.172ZM277.797 137.148C277.797 138.841 277.508 140.099 276.93 140.922C276.352 141.745 275.448 142.156 274.219 142.156C273.005 142.156 272.107 141.755 271.523 140.953C270.94 140.146 270.638 138.943 270.617 137.344V135.414C270.617 133.742 270.906 132.5 271.484 131.688C272.062 130.875 272.969 130.469 274.203 130.469C275.427 130.469 276.328 130.862 276.906 131.648C277.484 132.43 277.781 133.638 277.797 135.273V137.148ZM276.352 135.172C276.352 133.948 276.18 133.057 275.836 132.5C275.492 131.938 274.948 131.656 274.203 131.656C273.464 131.656 272.924 131.935 272.586 132.492C272.247 133.049 272.073 133.906 272.062 135.062V137.375C272.062 138.604 272.24 139.513 272.594 140.102C272.953 140.685 273.495 140.977 274.219 140.977C274.932 140.977 275.461 140.701 275.805 140.148C276.154 139.596 276.336 138.727 276.352 137.539V135.172ZM279.75 144.266L278.93 143.703C279.419 143.021 279.674 142.318 279.695 141.594V140.289H281.109V141.422C281.109 141.948 280.979 142.474 280.719 143C280.464 143.526 280.141 143.948 279.75 144.266ZM289.922 137.148C289.922 138.841 289.633 140.099 289.055 140.922C288.477 141.745 287.573 142.156 286.344 142.156C285.13 142.156 284.232 141.755 283.648 140.953C283.065 140.146 282.763 138.943 282.742 137.344V135.414C282.742 133.742 283.031 132.5 283.609 131.688C284.188 130.875 285.094 130.469 286.328 130.469C287.552 130.469 288.453 130.862 289.031 131.648C289.609 132.43 289.906 133.638 289.922 135.273V137.148ZM288.477 135.172C288.477 133.948 288.305 133.057 287.961 132.5C287.617 131.938 287.073 131.656 286.328 131.656C285.589 131.656 285.049 131.935 284.711 132.492C284.372 133.049 284.198 133.906 284.188 135.062V137.375C284.188 138.604 284.365 139.513 284.719 140.102C285.078 140.685 285.62 140.977 286.344 140.977C287.057 140.977 287.586 140.701 287.93 140.148C288.279 139.596 288.461 138.727 288.477 137.539V135.172ZM298.906 137.148C298.906 138.841 298.617 140.099 298.039 140.922C297.461 141.745 296.557 142.156 295.328 142.156C294.115 142.156 293.216 141.755 292.633 140.953C292.049 140.146 291.747 138.943 291.727 137.344V135.414C291.727 133.742 292.016 132.5 292.594 131.688C293.172 130.875 294.078 130.469 295.312 130.469C296.536 130.469 297.438 130.862 298.016 131.648C298.594 132.43 298.891 133.638 298.906 135.273V137.148ZM297.461 135.172C297.461 133.948 297.289 133.057 296.945 132.5C296.602 131.938 296.057 131.656 295.312 131.656C294.573 131.656 294.034 131.935 293.695 132.492C293.357 133.049 293.182 133.906 293.172 135.062V137.375C293.172 138.604 293.349 139.513 293.703 140.102C294.062 140.685 294.604 140.977 295.328 140.977C296.042 140.977 296.57 140.701 296.914 140.148C297.263 139.596 297.445 138.727 297.461 137.539V135.172ZM307.891 137.148C307.891 138.841 307.602 140.099 307.023 140.922C306.445 141.745 305.542 142.156 304.312 142.156C303.099 142.156 302.201 141.755 301.617 140.953C301.034 140.146 300.732 138.943 300.711 137.344V135.414C300.711 133.742 301 132.5 301.578 131.688C302.156 130.875 303.062 130.469 304.297 130.469C305.521 130.469 306.422 130.862 307 131.648C307.578 132.43 307.875 133.638 307.891 135.273V137.148ZM306.445 135.172C306.445 133.948 306.273 133.057 305.93 132.5C305.586 131.938 305.042 131.656 304.297 131.656C303.557 131.656 303.018 131.935 302.68 132.492C302.341 133.049 302.167 133.906 302.156 135.062V137.375C302.156 138.604 302.333 139.513 302.688 140.102C303.047 140.685 303.589 140.977 304.312 140.977C305.026 140.977 305.555 140.701 305.898 140.148C306.247 139.596 306.43 138.727 306.445 137.539V135.172ZM309.922 141.242C309.922 140.992 309.995 140.784 310.141 140.617C310.292 140.451 310.516 140.367 310.812 140.367C311.109 140.367 311.333 140.451 311.484 140.617C311.641 140.784 311.719 140.992 311.719 141.242C311.719 141.482 311.641 141.682 311.484 141.844C311.333 142.005 311.109 142.086 310.812 142.086C310.516 142.086 310.292 142.005 310.141 141.844C309.995 141.682 309.922 141.482 309.922 141.242ZM314.625 136.297L315.203 130.625H321.031V131.961H316.43L316.086 135.062C316.643 134.734 317.276 134.57 317.984 134.57C319.021 134.57 319.844 134.914 320.453 135.602C321.062 136.284 321.367 137.208 321.367 138.375C321.367 139.547 321.049 140.471 320.414 141.148C319.784 141.82 318.901 142.156 317.766 142.156C316.76 142.156 315.94 141.878 315.305 141.32C314.669 140.763 314.307 139.992 314.219 139.008H315.586C315.674 139.659 315.906 140.151 316.281 140.484C316.656 140.812 317.151 140.977 317.766 140.977C318.438 140.977 318.964 140.747 319.344 140.289C319.729 139.831 319.922 139.198 319.922 138.391C319.922 137.63 319.714 137.021 319.297 136.562C318.885 136.099 318.336 135.867 317.648 135.867C317.018 135.867 316.523 136.005 316.164 136.281L315.781 136.594L314.625 136.297ZM328.617 130.617V131.844H328.352C327.227 131.865 326.331 132.198 325.664 132.844C324.997 133.49 324.612 134.398 324.508 135.57C325.107 134.883 325.924 134.539 326.961 134.539C327.951 134.539 328.74 134.888 329.328 135.586C329.922 136.284 330.219 137.185 330.219 138.289C330.219 139.461 329.898 140.398 329.258 141.102C328.622 141.805 327.768 142.156 326.695 142.156C325.607 142.156 324.724 141.74 324.047 140.906C323.37 140.068 323.031 138.99 323.031 137.672V137.117C323.031 135.023 323.477 133.424 324.367 132.32C325.263 131.211 326.594 130.643 328.359 130.617H328.617ZM326.719 135.742C326.224 135.742 325.768 135.891 325.352 136.188C324.935 136.484 324.646 136.857 324.484 137.305V137.836C324.484 138.773 324.695 139.529 325.117 140.102C325.539 140.674 326.065 140.961 326.695 140.961C327.346 140.961 327.857 140.721 328.227 140.242C328.602 139.763 328.789 139.135 328.789 138.359C328.789 137.578 328.599 136.948 328.219 136.469C327.844 135.984 327.344 135.742 326.719 135.742Z" fill="white"/>
<defs>
<filter id="filter0_d_1_85" x="0" y="0" width="355" height="172" filterUnits="userSpaceOnUse" color-interpolation-filters="sRGB">
<feFlood flood-opacity="0" result="BackgroundImageFix"/>
<feColorMatrix in="SourceAlpha" type="matrix" values="0 0 0 0 0 0 0 0 0 0 0 0 0 0 0 0 0 0 127 0" result="hardAlpha"/>
<feOffset dy="2"/>
<feGaussianBlur stdDeviation="2"/>
<feComposite in2="hardAlpha" operator="out"/>
<feColorMatrix type="matrix" values="0 0 0 0 0 0 0 0 0 0 0 0 0 0 0 0 0 0 0.25 0"/>
<feBlend mode="normal" in2="BackgroundImageFix" result="effect1_dropShadow_1_85"/>
<feBlend mode="normal" in="SourceGraphic" in2="effect1_dropShadow_1_85" result="shape"/>
</filter>
<linearGradient id="paint0_linear_1_85" x1="41.0393" y1="84.9011" x2="330.319" y2="100.406" gradientUnits="userSpaceOnUse">
<stop stop-color="#003679"/>
<stop offset="1" stop-color="#0354B8"/>
</linearGradient>
</defs>
</svg>
