<svg width="44" height="44" viewBox="0 0 44 44" fill="none" xmlns="http://www.w3.org/2000/svg">
<g filter="url(#filter0_d_1_53)">
<rect x="4" y="4" width="36" height="36" rx="10" fill="#F2F2F2"/>
</g>
<path d="M25.6923 12H18.3077C17.0338 12 16 13.0182 16 14.2727V29.7272C16 30.9818 17.0338 31.9999 18.3077 31.9999H25.6923C26.9662 31.9999 28 30.9818 28 29.7272V14.2727C28 13.0182 26.9662 12 25.6923 12ZM22 31.0909C21.2338 31.0909 20.6154 30.4818 20.6154 29.7272C20.6154 28.9727 21.2338 28.3636 22 28.3636C22.7662 28.3636 23.3846 28.9727 23.3846 29.7272C23.3846 30.4818 22.7662 31.0909 22 31.0909ZM26.1538 27.4545H17.8462V14.7273H26.1538V27.4545Z" fill="#8A8A8A"/>
<defs>
<filter id="filter0_d_1_53" x="0" y="0" width="44" height="44" filterUnits="userSpaceOnUse" color-interpolation-filters="sRGB">
<feFlood flood-opacity="0" result="BackgroundImageFix"/>
<feColorMatrix in="SourceAlpha" type="matrix" values="0 0 0 0 0 0 0 0 0 0 0 0 0 0 0 0 0 0 127 0" result="hardAlpha"/>
<feOffset/>
<feGaussianBlur stdDeviation="2"/>
<feComposite in2="hardAlpha" operator="out"/>
<feColorMatrix type="matrix" values="0 0 0 0 0 0 0 0 0 0 0 0 0 0 0 0 0 0 0.25 0"/>
<feBlend mode="normal" in2="BackgroundImageFix" result="effect1_dropShadow_1_53"/>
<feBlend mode="normal" in="SourceGraphic" in2="effect1_dropShadow_1_53" result="shape"/>
</filter>
</defs>
</svg>
