<svg width="44" height="44" viewBox="0 0 44 44" fill="none" xmlns="http://www.w3.org/2000/svg">
<g filter="url(#filter0_d_1_66)">
<rect x="4" y="4" width="36" height="36" rx="10" fill="#F2F2F2"/>
<path d="M23.82 32H20.18C19.9519 32 19.7307 31.9221 19.553 31.7792C19.3753 31.6362 19.2518 31.4368 19.203 31.214L18.796 29.33C18.2531 29.0921 17.7382 28.7946 17.261 28.443L15.424 29.028C15.2066 29.0973 14.972 29.0902 14.7591 29.0078C14.5463 28.9254 14.3681 28.7727 14.254 28.575L12.43 25.424C12.3172 25.2261 12.2748 24.9958 12.3098 24.7708C12.3449 24.5457 12.4553 24.3392 12.623 24.185L14.048 22.885C13.9832 22.2961 13.9832 21.7019 14.048 21.113L12.623 19.816C12.4551 19.6618 12.3445 19.4551 12.3095 19.2298C12.2744 19.0045 12.3169 18.774 12.43 18.576L14.25 15.423C14.3641 15.2253 14.5423 15.0726 14.7551 14.9902C14.968 14.9078 15.2026 14.9007 15.42 14.97L17.257 15.555C17.501 15.375 17.755 15.207 18.017 15.055C18.27 14.913 18.53 14.784 18.796 14.669L19.204 12.787C19.2526 12.5642 19.3758 12.3647 19.5534 12.2215C19.7309 12.0784 19.952 12.0002 20.18 12H23.82C24.048 12.0002 24.2691 12.0784 24.4467 12.2215C24.6242 12.3647 24.7474 12.5642 24.796 12.787L25.208 14.67C25.488 14.794 25.762 14.933 26.027 15.088C26.274 15.231 26.513 15.388 26.743 15.557L28.581 14.972C28.7983 14.9029 29.0327 14.9102 29.2453 14.9926C29.4579 15.075 29.636 15.2275 29.75 15.425L31.57 18.578C31.802 18.985 31.722 19.5 31.377 19.817L29.952 21.117C30.0168 21.7059 30.0168 22.3001 29.952 22.889L31.377 24.189C31.722 24.507 31.802 25.021 31.57 25.428L29.75 28.581C29.636 28.7787 29.4577 28.9314 29.2449 29.0138C29.0321 29.0962 28.7974 29.1033 28.58 29.034L26.743 28.449C26.2661 28.8003 25.7516 29.0975 25.209 29.335L24.796 31.214C24.7472 31.4366 24.6239 31.6359 24.4464 31.7788C24.2689 31.9218 24.0479 31.9998 23.82 32ZM21.996 18C20.9351 18 19.9177 18.4214 19.1676 19.1716C18.4174 19.9217 17.996 20.9391 17.996 22C17.996 23.0609 18.4174 24.0783 19.1676 24.8284C19.9177 25.5786 20.9351 26 21.996 26C23.0569 26 24.0743 25.5786 24.8244 24.8284C25.5746 24.0783 25.996 23.0609 25.996 22C25.996 20.9391 25.5746 19.9217 24.8244 19.1716C24.0743 18.4214 23.0569 18 21.996 18Z" fill="#8A8A8A"/>
</g>
<defs>
<filter id="filter0_d_1_66" x="0" y="0" width="44" height="44" filterUnits="userSpaceOnUse" color-interpolation-filters="sRGB">
<feFlood flood-opacity="0" result="BackgroundImageFix"/>
<feColorMatrix in="SourceAlpha" type="matrix" values="0 0 0 0 0 0 0 0 0 0 0 0 0 0 0 0 0 0 127 0" result="hardAlpha"/>
<feOffset/>
<feGaussianBlur stdDeviation="2"/>
<feComposite in2="hardAlpha" operator="out"/>
<feColorMatrix type="matrix" values="0 0 0 0 0 0 0 0 0 0 0 0 0 0 0 0 0 0 0.25 0"/>
<feBlend mode="normal" in2="BackgroundImageFix" result="effect1_dropShadow_1_66"/>
<feBlend mode="normal" in="SourceGraphic" in2="effect1_dropShadow_1_66" result="shape"/>
</filter>
</defs>
</svg>
